<svg width="19" height="23" viewBox="0 0 19 23" fill="none" xmlns="http://www.w3.org/2000/svg">
<path d="M9.5 3.95117C4.25426 3.95117 0 8.20357 0 13.4512C0 18.6988 4.2524 22.9512 9.5 22.9512C14.7476 22.9512 19 18.6988 19 13.4512C19 8.20357 14.7476 3.95117 9.5 3.95117Z" fill="white"/>
<path d="M16.0153 3.39222C15.9241 2.73371 15.7883 2.08264 15.6097 1.4446C15.4832 0.998152 15.3791 0.719123 15.3661 0.6875C15.3642 0.6875 15.0777 0.78609 14.6294 0.986991C14.0249 1.26044 13.4389 1.57481 12.8771 1.92825C12.1275 2.39516 11.4299 2.94391 10.8011 3.56522C10.4589 3.90563 10.1426 4.27395 9.85616 4.66273C9.55853 5.06825 9.30183 5.50168 9.0879 5.95742L7.41001 9.55689C7.03425 9.51597 6.65291 9.51039 6.27529 9.54201C5.84373 9.58108 5.41961 9.66292 5.00478 9.7857L3.55383 12.8922C4.22536 12.4476 5.00292 12.1853 5.80653 12.1314C6.00557 12.1128 6.20461 12.1091 6.40365 12.1147C6.65477 12.1593 6.90404 12.2114 7.1533 12.2709L6.27157 14.159C6.9431 13.7144 7.72066 13.4521 8.52427 13.3982C8.83306 13.3703 9.14185 13.3721 9.45064 13.3982C9.66828 13.6177 9.86918 13.8521 10.0459 14.1069C10.5203 14.758 10.8197 15.5207 10.9109 16.3205L11.7889 14.4362C11.9917 14.5869 12.1907 14.745 12.386 14.9068C12.5144 15.0538 12.6371 15.2063 12.7488 15.3663C13.2231 16.0173 13.5226 16.78 13.6138 17.5799L15.061 14.4715C14.8898 14.0753 14.6778 13.6958 14.4304 13.3424C14.2109 13.0317 13.9616 12.7453 13.6882 12.483L15.3679 8.88164C15.58 8.4259 15.7455 7.94969 15.8664 7.46232C15.9818 6.99355 16.0599 6.51548 16.1008 6.03369C16.1715 5.15196 16.1436 4.26651 16.0208 3.39222H16.0153Z" fill="#404654"/>
<path d="M13.5321 4.64236C13.7553 4.74653 13.9413 4.91395 14.0678 5.12229C14.1943 5.33249 14.2575 5.57431 14.2464 5.81986C14.2352 6.0654 14.1534 6.30165 14.0083 6.49883C13.8632 6.69601 13.6623 6.84669 13.4316 6.93039C13.2009 7.0141 12.9517 7.02712 12.7136 6.96946C12.4755 6.91179 12.2597 6.78344 12.0941 6.603C11.9286 6.42256 11.8207 6.19562 11.7835 5.95379C11.7463 5.71197 11.7816 5.4627 11.8858 5.24134C12.0253 4.94371 12.2764 4.71305 12.5852 4.59957C12.894 4.48796 13.2363 4.50284 13.5339 4.6405L13.5321 4.64236Z" fill="white"/>
<path d="M9.50908 22.9424C10.2346 22.9424 10.9414 22.8587 11.6204 22.7043C11.3711 22.2392 11.0437 21.8188 10.6494 21.4654C10.7796 20.8571 10.6643 20.2228 10.3294 19.6982C9.99273 19.1755 9.46258 18.8053 8.85429 18.6733C9.28214 17.2056 9.31748 15.6504 8.9566 14.166L8.59387 14.3409C7.32708 14.964 6.23329 15.8886 5.4055 17.0344C4.91069 16.7033 4.30985 16.5712 3.72203 16.6661C3.13421 16.761 2.60405 17.0754 2.23945 17.5441C1.80789 17.4827 1.37074 17.4846 0.94104 17.546C2.47198 20.7381 5.73289 22.9424 9.51094 22.9424H9.50908Z" fill="url(#paint0_linear_1983_45785)"/>
<defs>
<linearGradient id="paint0_linear_1983_45785" x1="8.79291" y1="15.3175" x2="4.28008" y2="23.9543" gradientUnits="userSpaceOnUse">
<stop stop-color="#FBED5F"/>
<stop offset="0.22" stop-color="#FDE90D"/>
<stop offset="1" stop-color="#F18724"/>
</linearGradient>
</defs>
</svg>
