<svg width="322" height="98" viewBox="0 0 322 98" fill="none" xmlns="http://www.w3.org/2000/svg">
<path d="M42.2894 13.8682H279.43C290.584 13.8682 301.288 18.2986 309.174 26.1932C317.061 34.0797 321.499 44.7832 321.499 55.9372C321.499 67.0912 317.069 77.7948 309.174 85.6812C301.288 93.5676 290.584 97.9981 279.43 97.9981H42.2894C31.1354 97.9981 20.4318 93.5676 12.5454 85.6812C4.65899 77.7948 0.228516 67.0994 0.228516 55.9372C0.228516 44.775 4.65899 34.0797 12.5536 26.1932C20.44 18.3068 31.1436 13.8682 42.2976 13.8682H42.2894Z" fill="#FEEE00"/>
<path d="M41.8232 92.2694C61.7556 92.2694 77.914 76.111 77.914 56.1787C77.914 36.2463 61.7556 20.0879 41.8232 20.0879C21.8908 20.0879 5.73242 36.2463 5.73242 56.1787C5.73242 76.111 21.8908 92.2694 41.8232 92.2694Z" fill="white"/>
<path d="M41.8234 20.0943C61.7237 20.0943 77.9141 36.2848 77.9141 56.1851C77.9141 76.0854 61.7237 92.2759 41.8234 92.2759C21.9231 92.2759 5.73259 76.0772 5.73259 56.1769C5.73259 36.2766 21.9231 20.0943 41.8234 20.0943ZM41.8234 14.3617C18.721 14.3617 0 33.0827 0 56.1769C0 79.2711 18.721 98.0003 41.8234 98.0003C64.9257 98.0003 83.6467 79.2792 83.6467 56.1769C83.6467 33.0745 64.9257 14.3535 41.8234 14.3535V14.3617Z" fill="#F3E003"/>
<path d="M71.3199 11.9074C70.9186 9.00836 70.3208 6.14207 69.5346 3.33309C68.9777 1.36763 68.5191 0.13922 68.4618 0C68.4536 0 67.1924 0.434039 65.2188 1.3185C62.5572 2.52234 59.9776 3.90635 57.5044 5.46234C54.204 7.51789 51.133 9.93377 48.365 12.669C46.8581 14.1677 45.4659 15.7892 44.2047 17.5008C42.8944 19.2861 41.7643 21.1942 40.8225 23.2006L33.4357 39.0472C31.7814 38.867 30.1026 38.8424 28.4401 38.9816C26.5402 39.1536 24.673 39.514 22.8467 40.0545L16.459 53.7308C19.4154 51.7735 22.8385 50.6188 26.3764 50.3813C27.2526 50.2994 28.1289 50.283 29.0052 50.3076C30.1107 50.5042 31.2081 50.7335 32.3055 50.9955L28.4237 59.3078C31.3801 57.3505 34.8033 56.1958 38.3411 55.9583C39.7006 55.8355 41.06 55.8437 42.4194 55.9583C43.3776 56.9247 44.2621 57.9565 45.0401 59.0785C47.1284 61.9448 48.4469 65.3024 48.8481 68.8239L52.7136 60.528C53.6062 61.1914 54.4825 61.8875 55.3424 62.5999C55.9074 63.2469 56.4479 63.9184 56.9393 64.6227C59.0276 67.489 60.3461 70.8467 60.7474 74.3681L67.1187 60.6836C66.3653 58.9393 65.4317 57.2686 64.3425 55.7126C63.3762 54.345 62.2788 53.0838 61.075 51.9291L68.47 36.0744C69.4036 34.068 70.1325 31.9715 70.6648 29.8259C71.1725 27.7621 71.5165 25.6575 71.6966 23.5364C72.0078 19.6546 71.885 15.7564 71.3445 11.9074H71.3199Z" fill="#404654"/>
<path d="M59.568 17.4105C60.5507 17.8691 61.3696 18.6061 61.9265 19.5233C62.4834 20.4487 62.7618 21.5134 62.7127 22.5944C62.6636 23.6754 62.3032 24.7154 61.6645 25.5835C61.0257 26.4516 60.1412 27.1149 59.1257 27.4834C58.1103 27.852 57.0129 27.9093 55.9646 27.6554C54.9164 27.4015 53.9664 26.8365 53.2376 26.0421C52.5087 25.2477 52.0337 24.2486 51.8699 23.184C51.7061 22.1194 51.8617 21.022 52.3203 20.0474C52.9345 18.7371 54.0401 17.7217 55.3996 17.2221C56.759 16.7307 58.2659 16.7962 59.5762 17.4023L59.568 17.4105Z" fill="white"/>
<path d="M41.6326 97.9766C44.8265 97.9766 47.9384 97.608 50.9276 96.9283C49.8302 94.881 48.3889 93.0301 46.6527 91.4742C47.226 88.7962 46.7182 86.0036 45.2441 83.6942C43.7618 81.393 41.4278 79.7633 38.7499 79.1818C40.6335 72.7204 40.7891 65.874 39.2003 59.3389L37.6034 60.1087C32.0264 62.8521 27.211 66.9223 23.5667 71.967C21.3883 70.5092 18.7431 69.9278 16.1553 70.3454C13.5674 70.7631 11.2335 72.1471 9.62832 74.2109C7.72838 73.9406 5.80387 73.9488 3.91211 74.219C10.652 88.2721 25.0081 97.9766 41.6408 97.9766H41.6326Z" fill="url(#paint0_linear_1290_19076)"/>
<path d="M109.36 40.579H116.037L116.105 48.1849C117.759 42.014 120.123 40.1484 126.007 40.1484H127.366L125.576 50.481H123.069C121.347 50.481 119.98 50.692 118.907 51.1985C116.898 52.1271 115.961 54.1447 115.32 58.0194L111.082 82.2722H102.041L109.36 40.579Z" fill="#393B42"/>
<path d="M129.884 80.9851C125.942 78.1825 124.718 73.3033 125.799 67.2759L128.382 52.7056C129.749 44.7367 135.059 40.001 143.02 40.001C152.854 40.001 157.016 45.9608 155.361 55.5758L152.778 70.4331C151.411 78.5455 146.464 82.9943 137.921 82.9943C134.477 82.9943 131.818 82.3527 129.884 80.9851ZM143.948 68.9305L146.455 54.2927C147.249 49.768 145.738 47.9024 142.581 47.9024C139.71 47.9024 137.988 49.6244 137.338 53.5667L134.688 68.5675C133.894 72.8052 135.262 74.8818 138.63 74.8818C141.5 74.8818 143.298 72.8727 143.94 68.922L143.948 68.9305Z" fill="#393B42"/>
<path d="M162.384 80.9826C158.509 78.2559 157.429 73.4442 158.509 67.2733L161.092 52.6355C162.527 44.6666 167.913 40.0068 175.806 40.0068C185.784 40.0068 189.802 45.8231 188.148 55.5057L187.717 58.2323H178.246L178.887 54.5011C179.748 49.6894 178.676 47.8998 175.367 47.8998C172.277 47.8998 170.699 49.6894 169.914 54.2901L167.474 68.4298C166.681 72.7351 167.905 74.8877 171.205 74.8877C174.506 74.8877 175.73 72.8786 176.372 68.8604L177.233 63.9811H186.637L185.413 70.5825C184.045 78.4754 179.166 83.0001 170.631 83.0001C167.044 83.0001 164.384 82.3586 162.375 80.991L162.384 80.9826Z" fill="#393B42"/>
<path d="M200.271 67.1282L197.62 82.2725H188.646L198.118 28.457H207.091L202.423 55.006L201.993 56.9391L203.208 54.93L214.258 40.5792H224.591L212.317 56.3651L217.559 82.2725H208.155L204.635 62.6794L204.702 60.8138L200.254 67.1282H200.271Z" fill="#393B42"/>
<path d="M233.42 82.9943C229.832 82.9943 227.106 82.3527 225.164 80.9851C221.222 78.2585 220.065 73.4468 221.146 67.2759L223.653 52.9927C225.088 44.7367 230.33 40.001 238.434 40.001C248.125 40.001 252.642 45.5978 250.919 55.2888L249.408 64.0428H230.609L229.891 68.061C229.03 72.8727 230.246 75.0253 233.91 75.0253C237.354 75.0253 238.645 73.0162 239.295 69.1415L239.506 67.85H248.691L248.117 70.7876C246.462 79.1871 242.089 82.9858 233.403 82.9858L233.42 82.9943ZM241.6 57.7369L242.174 54.7907C243.102 49.9115 241.667 47.7588 238.08 47.7588C234.492 47.7588 233.057 49.9874 232.263 54.5797L231.689 57.7369H241.591H241.6Z" fill="#393B42"/>
<path d="M264.274 82.2722C261.404 82.2722 259.251 81.9852 257.74 81.1917C254.651 79.7566 254.085 76.3124 255.233 69.7786L258.821 49.4005H253.941L255.376 41.1446C256.744 41.077 258.247 40.9335 259.395 40.3595C260.619 39.7854 261.623 38.7809 262.265 37.4133C263.058 35.9783 263.345 34.6867 263.843 32.7451H270.445L269.077 40.5705H275.248L273.737 49.4005H267.49L264.257 67.7695C263.97 69.4916 263.903 70.7072 263.97 71.5007C264.257 73.1553 265.549 73.4338 267.921 73.4338H269.432L267.921 82.2638H264.257L264.274 82.2722Z" fill="#393B42"/>
<defs>
<linearGradient id="paint0_linear_1290_19076" x1="38.4797" y1="64.4081" x2="18.6121" y2="102.432" gradientUnits="userSpaceOnUse">
<stop stop-color="#FBED5F"/>
<stop offset="0.22" stop-color="#FDE90D"/>
<stop offset="1" stop-color="#F18724"/>
</linearGradient>
</defs>
</svg>
